# xmcd
#
# Track frame offsets: 
#        150
#        10406
#        20500
#        33315
#        39270
#        66060
#        78911
#        99924
#        117059
#        139112
#        154226
#        172329
#        193797
#        235274
#        264780
#        282353
#        302520
#        316768
#        328557
#        344069
#        354169
#        365210
#        377617
#        384753
#
# Disc length: 5254 seconds
#
# Revision: 0
# Processed by: cddbd v1.5.2PL0 Copyright (c) Steve Scherf et al.
# Submitted via: ExactAudioCopyFreeDBPlugin 1.0
#
DISCID=4a148418
DTITLE=Slim Harpo - Buzzin' The Blues: The Complete Slim Harpo [CD5
DTITLE=)
DYEAR=2015
DGENRE=Blues
TTITLE0=Star Time (Set 1 Theme and Introduction)
TTITLE1=Hold Me Tenderly
TTITLE2=Little Liza Jane (Set 1)
TTITLE3=I'm A King Bee (Set 1)
TTITLE4=Buzzin'
TTITLE5=I Got Love If You Want It (Set 1)
TTITLE6=You Know I Love You
TTITLE7=Lottie Mo
TTITLE8=Everybody Needs Somebody
TTITLE9=Big Boss Man
TTITLE10=I'll Take Care Of You
TTITLE11=Boogie Chillun
TTITLE12=Moody Blues (Instrumental)
TTITLE13=Sugar Coated Love
TTITLE14=Last Night
TTITLE15=Matilda (Unknown Vocalist)
TTITLE16=Talk To Me Baby (Unknown Vocalist)
TTITLE17=Star Time (Set 2 Theme and Introduction)
TTITLE18=I'm A King Bee (Set 2)
TTITLE19=I Don't Play
TTITLE20=I Got Love If You Want It (Set 2)
TTITLE21=Little Liza Jane (Set 2)
TTITLE22=When The Saints Go Marchin' In
TTITLE23=Rainin' In My Heart
EXTD=
EXTT0=
EXTT1=
EXTT2=
EXTT3=
EXTT4=
EXTT5=
EXTT6=
EXTT7=
EXTT8=
EXTT9=
EXTT10=
EXTT11=
EXTT12=
EXTT13=
EXTT14=
EXTT15=
EXTT16=
EXTT17=
EXTT18=
EXTT19=
EXTT20=
EXTT21=
EXTT22=
EXTT23=
PLAYORDER=
